# xmcd
#
# Track frame offsets:
#   150
#   2473
#   23363
#   47688
#   68691
#   91982
#   109906
#   122305
#   142253
#   175084
#   193826
#   216294
#   233593
#   275646
#   307210
#
# Disc length: 4402 seconds
#
# Revision: 0
# Processed by: cddbd v1.5.2PL0 Copyright (c) Steve Scherf et al.
# Submitted via: GXTranscoder 2.0.1939
#
DISCID=cb11300f
DTITLE=John Campbelljohn - Official Bootleg
DYEAR=2006
DGENRE=Blues
TTITLE0=Introduction
TTITLE1=Pretty Paula Doy
TTITLE2=Heart Like a Stone
TTITLE3=Cherokee Boogie (Eh-Oh-Aleena)
TTITLE4=Slow Down
TTITLE5=Sydney Steel
TTITLE6=Ready for a Riot
TTITLE7=You Got to Move
TTITLE8=Don't Let the Drinkin' Do the Thinkin'
TTITLE9=Phone Booth
TTITLE10=Kathaline
TTITLE11=Johnny Rock and Roll
TTITLE12=Tanz des Siebenschlafers/I Want to Get Up
TTITLE13=The World Is Crazy
TTITLE14=Gute Nacht Liebe Freunde
EXTD=
EXTT0=
EXTT1=
EXTT2=
EXTT3=
EXTT4=
EXTT5=
EXTT6=
EXTT7=
EXTT8=
EXTT9=
EXTT10=
EXTT11=
EXTT12=
EXTT13=
EXTT14=
PLAYORDER=
